SplineFontDB: 3.2
FontName: UnicodiaHan
FullName: UnicodiaHan
FamilyName: UnicodiaHan
Weight: Regular
Copyright: Copyright (c) 2022, Mikhail Merkuryev
UComments: "2022-9-30: Created with FontForge (http://fontforge.org)"
Version: 001.000
ItalicAngle: 0
UnderlinePosition: -100
UnderlineWidth: 50
Ascent: 800
Descent: 200
InvalidEm: 0
LayerCount: 2
Layer: 0 1 "Back" 1
Layer: 1 1 "Fore" 0
XUID: [1021 59 1751208496 28364]
FSType: 0
OS2Version: 0
OS2_WeightWidthSlopeOnly: 0
OS2_UseTypoMetrics: 1
CreationTime: 1664568655
ModificationTime: 1694897611
PfmFamily: 17
TTFWeight: 400
TTFWidth: 5
LineGap: 90
VLineGap: 0
OS2TypoAscent: 900
OS2TypoAOffset: 0
OS2TypoDescent: -100
OS2TypoDOffset: 0
OS2TypoLinegap: 90
OS2WinAscent: 900
OS2WinAOffset: 0
OS2WinDescent: 100
OS2WinDOffset: 0
HheadAscent: 900
HheadAOffset: 0
HheadDescent: 100
HheadDOffset: 0
OS2Vendor: 'PfEd'
OS2UnicodeRanges: 00000000.2a000000.00000000.00000000
MarkAttachClasses: 1
DEI: 91125
LangName: 1033
GaspTable: 1 65535 15 1
Encoding: Custom
UnicodeInterp: none
NameList: AGL For New Fonts
DisplaySize: -48
AntiAlias: 1
FitToEm: 0
WinInfo: 0 27 13
BeginPrivate: 0
EndPrivate
TeXData: 1 0 0 346030 173015 115343 0 1048576 115343 783286 444596 497025 792723 393216 433062 380633 303038 157286 324010 404750 52429 2506097 1059062 262144
BeginChars: 28 28

StartChar: u1AFF0
Encoding: 0 110576 0
Width: 640
VWidth: 1040
Flags: W
LayerCount: 2
Fore
SplineSet
513 853 m 1,0,-1
 535 832 l 1,1,2
 506.650390625 596.478515625 506.650390625 596.478515625 412.5 364.5 c 0,3,4
 306.768554688 103.985351562 306.768554688 103.985351562 146 -53 c 1,5,-1
 95 2 l 1,6,7
 299.772460938 201.653320312 299.772460938 201.653320312 443 629.5 c 0,8,9
 482 746 482 746 513 853 c 1,0,-1
EndSplineSet
EndChar

StartChar: u1AFF1
Encoding: 1 110577 1
Width: 640
VWidth: 1040
Flags: W
LayerCount: 2
Fore
SplineSet
513 -53 m 1,0,1
 435.43359375 214.73046875 435.43359375 214.73046875 353.5 400.5 c 0,2,3
 240.94140625 655.70703125 240.94140625 655.70703125 95 798 c 1,4,-1
 146 853 l 1,5,6
 306.973632812 693.919921875 306.973632812 693.919921875 412.5 435 c 0,7,8
 506.569335938 204.189453125 506.569335938 204.189453125 535 -32 c 1,9,-1
 513 -53 l 1,0,1
EndSplineSet
EndChar

StartChar: u1AFF2
Encoding: 2 110578 2
Width: 640
VWidth: 1040
Flags: W
LayerCount: 2
Fore
SplineSet
132 240 m 1,0,1
 132 355 132 355 163 431 c 128,-1,2
 194 507 194 507 232.5 535.5 c 0,3,4
 283.850585938 573.512695312 283.850585938 573.512695312 344.098632812 573.512695312 c 0,5,6
 415.1953125 573.512695312 415.1953125 573.512695312 454.5 522.5 c 0,7,8
 478 492 478 492 478 443.5 c 128,-1,9
 478 395 478 395 460 367 c 128,-1,10
 442 339 442 339 413 326 c 128,-1,11
 384 313 384 313 348.5 307.5 c 128,-1,12
 313 302 313 302 277.5 297 c 0,13,14
 194.926757812 285.370117188 194.926757812 285.370117188 163 240 c 1,15,-1
 132 240 l 1,0,1
EndSplineSet
EndChar

StartChar: u1AFF3
Encoding: 3 110579 3
Width: 640
VWidth: 1040
Flags: W
LayerCount: 2
Fore
SplineSet
235 400 m 1,0,1
 417 192 417 192 465 -32 c 1,2,-1
 443 -53 l 1,3,4
 353.831054688 174.168945312 353.831054688 174.168945312 175 353 c 0,5,6
 145 383 145 383 145 389 c 2,7,-1
 145 409 l 2,8,9
 145 416 145 416 175 446.5 c 128,-1,10
 205 477 205 477 252 531.5 c 0,11,12
 369.68359375 667.962890625 369.68359375 667.962890625 443 853 c 1,13,-1
 465 832 l 1,14,15
 417 608 417 608 235 400 c 1,0,1
EndSplineSet
EndChar

StartChar: u1AFF5
Encoding: 4 110581 4
Width: 640
VWidth: 1040
Flags: W
LayerCount: 2
Fore
SplineSet
325 -60 m 1,0,-1
 305 -60 l 1,1,-1
 270 400 l 1,2,-1
 305 860 l 1,3,-1
 325 860 l 1,4,-1
 360 400 l 1,5,-1
 325 -60 l 1,0,-1
EndSplineSet
EndChar

StartChar: u1AFF6
Encoding: 5 110582 5
Width: 640
VWidth: 1040
Flags: W
LayerCount: 2
Fore
SplineSet
125 593 m 1,0,1
 129.27734375 593.055664062 129.27734375 593.055664062 133.501953125 593.055664062 c 0,2,3
 268.5 593.055664062 268.5 593.055664062 361.5 534.5 c 0,4,5
 458.512695312 473.41796875 458.512695312 473.41796875 458.512695312 373.54296875 c 0,6,7
 458.512695312 305.795898438 458.512695312 305.795898438 407.5 269 c 0,8,9
 377 247 377 247 328.5 247 c 128,-1,10
 280 247 280 247 252 265 c 128,-1,11
 224 283 224 283 211 312 c 128,-1,12
 198 341 198 341 192.5 376.5 c 128,-1,13
 187 412 187 412 182 447.5 c 0,14,15
 170.108398438 531.927734375 170.108398438 531.927734375 125 562 c 1,16,-1
 125 593 l 1,0,1
EndSplineSet
EndChar

StartChar: u1AFF7
Encoding: 6 110583 6
Width: 640
VWidth: 1040
Flags: W
LayerCount: 2
Fore
SplineSet
207 860 m 1,0,-1
 227 860 l 1,1,2
 235 771 235 771 235 707.5 c 128,-1,3
 235 644 235 644 232 344 c 0,4,5
 232 264 232 264 237 201 c 1,6,7
 290 232 290 232 334.5 232 c 128,-1,8
 379 232 379 232 412.5 213 c 128,-1,9
 446 194 446 194 465.5 161.5 c 128,-1,10
 485.016601562 128.97265625 485.016601562 128.97265625 485.016601562 90.646484375 c 0,11,12
 485.016601562 20.2626953125 485.016601562 20.2626953125 426 -24 c 0,13,14
 388 -53 388 -53 342 -53 c 0,15,16
 275 -53 275 -53 220 8 c 128,-1,17
 165 69 165 69 165 319 c 128,-1,18
 165 569 165 569 207 860 c 1,0,-1
410 90 m 0,19,20
 410 122 410 122 378 146 c 0,21,22
 363.23046875 157.077148438 363.23046875 157.077148438 343.348632812 157.077148438 c 0,23,24
 341.692382812 157.077148438 341.692382812 157.077148438 340 157 c 0,25,26
 295 157 295 157 247 121 c 1,27,28
 256 82 256 82 271 64 c 0,29,30
 307 23 307 23 342.5 23 c 128,-1,31
 378 23 378 23 400 59 c 0,32,33
 410 77 410 77 410 90 c 0,19,20
EndSplineSet
EndChar

StartChar: u1AFF8
Encoding: 7 110584 7
Width: 640
VWidth: 1040
Flags: W
LayerCount: 2
Fore
SplineSet
505 853 m 1,0,-1
 535 850 l 1,1,2
 425.284179688 731.140625 425.284179688 731.140625 332.1328125 552.1640625 c 128,-1,3
 238.981445312 373.188476562 238.981445312 373.188476562 194 227 c 1,4,5
 213.928710938 229.892578125 213.928710938 229.892578125 241.633789062 229.892578125 c 128,-1,6
 269.338867188 229.892578125 269.338867188 229.892578125 304.169921875 213.946289062 c 128,-1,7
 339 198 339 198 359.755859375 163.407226562 c 128,-1,8
 380.51171875 128.813476562 380.51171875 128.813476562 380.51171875 88.2958984375 c 128,-1,9
 380.51171875 47.7783203125 380.51171875 47.7783203125 357.255859375 11.8896484375 c 128,-1,10
 334 -24 334 -24 300.75 -38.4375 c 128,-1,11
 267.5 -52.875 267.5 -52.875 247.1875 -52.875 c 128,-1,12
 226.875 -52.875 226.875 -52.875 216.5 -51.5 c 0,13,14
 175 -46 175 -46 142 -16 c 128,-1,15
 109 14 109 14 97 71 c 0,16,17
 94.75 80.75 94.75 80.75 94.75 98.625 c 0,18,19
 94.75 153.287109375 94.75 153.287109375 140.220703125 286.797851562 c 128,-1,20
 185.692382812 420.309570312 185.692382812 420.309570312 283.990234375 583.793945312 c 128,-1,21
 382.288085938 747.278320312 382.288085938 747.278320312 505 853 c 1,0,-1
305.94140625 94.8271484375 m 0,22,23
 305.94140625 154.080078125 305.94140625 154.080078125 226.115234375 154.080078125 c 0,24,25
 210.48046875 154.080078125 210.48046875 154.080078125 198 152 c 1,26,-1
 174 150 l 1,27,28
 169.059570312 125.299804688 169.059570312 125.299804688 169.059570312 105.189453125 c 0,29,30
 169.059570312 60.005859375 169.059570312 60.005859375 190.328125 41.240234375 c 128,-1,31
 211.596679688 22.4736328125 211.596679688 22.4736328125 232.258789062 22.4736328125 c 128,-1,32
 252.920898438 22.4736328125 252.920898438 22.4736328125 269.9609375 31.2373046875 c 0,33,34
 305.94140625 49.7412109375 305.94140625 49.7412109375 305.94140625 94.8271484375 c 0,22,23
EndSplineSet
EndChar

StartChar: u1AFF9
Encoding: 8 110585 8
Width: 640
VWidth: 1040
Flags: W
LayerCount: 2
Fore
SplineSet
350 619 m 1,0,1
 292.973632812 568.040039062 292.973632812 568.040039062 232.725585938 568.040039062 c 0,2,3
 201.780273438 568.040039062 201.780273438 568.040039062 170.389648438 583.51953125 c 128,-1,4
 139 599 139 599 117 633.5 c 128,-1,5
 95 668 95 668 95 708.5 c 128,-1,6
 95 749 95 749 114.5 781.5 c 128,-1,7
 134 814 134 814 167 833.5 c 128,-1,8
 200 853 200 853 238 853 c 0,9,10
 294 853 294 853 346 802 c 0,11,12
 381.65625 766.34375 381.65625 766.34375 431.440429688 594.012695312 c 128,-1,13
 481.225585938 421.680664062 481.225585938 421.680664062 518 132.5 c 0,14,15
 529 46 529 46 535 -32 c 1,16,-1
 513 -53 l 1,17,18
 493 30 493 30 472.5 121.5 c 0,19,20
 386.135742188 506.978515625 386.135742188 506.978515625 350 619 c 1,0,1
294 747 m 0,21,22
 264.823242188 778 264.823242188 778 232.5 778 c 0,23,24
 216 778 216 778 201 766.5 c 128,-1,25
 186 755 186 755 178 739 c 128,-1,26
 170 723 170 723 170 709.5 c 128,-1,27
 170 696 170 696 177 678.5 c 0,28,29
 191.424804688 642.4375 191.424804688 642.4375 225.666015625 642.4375 c 128,-1,30
 259.90625 642.4375 259.90625 642.4375 305 679 c 1,31,-1
 324 695 l 1,32,33
 308.821289062 734.03125 308.821289062 734.03125 294 747 c 0,21,22
EndSplineSet
EndChar

StartChar: u1AFFA
Encoding: 9 110586 9
Width: 640
VWidth: 1040
Flags: W
LayerCount: 2
Fore
SplineSet
122 240 m 1,0,1
 122 380.09765625 122 380.09765625 182.5 475 c 0,2,3
 249.872070312 580.681640625 249.872070312 580.681640625 350.98828125 580.681640625 c 0,4,5
 421.842773438 580.681640625 421.842773438 580.681640625 463 528 c 0,6,7
 488 496 488 496 488 444.5 c 128,-1,8
 488 393 488 393 468.5 364 c 128,-1,9
 449 335 449 335 417.5 322 c 128,-1,10
 386 309 386 309 348 304 c 128,-1,11
 310 299 310 299 272.5 294.5 c 128,-1,12
 235 290 235 290 203.5 278.5 c 128,-1,13
 172 267 172 267 153 240 c 1,14,-1
 122 240 l 1,0,1
169 312 m 1,15,16
 192 337 192 337 223.5 347.5 c 128,-1,17
 255 358 255 358 288 363.5 c 128,-1,18
 321 369 321 369 349.5 375.5 c 0,19,20
 413 389.982421875 413 389.982421875 413 446 c 0,21,22
 413 475 413 475 391.942382812 490.314453125 c 128,-1,23
 370.885742188 505.62890625 370.885742188 505.62890625 338.495117188 505.62890625 c 128,-1,24
 306.103515625 505.62890625 306.103515625 505.62890625 268.649414062 476.390625 c 0,25,26
 202.380859375 424.66015625 202.380859375 424.66015625 169 312 c 1,15,16
EndSplineSet
EndChar

StartChar: u1AFFB
Encoding: 10 110587 10
Width: 640
VWidth: 1040
Flags: W
LayerCount: 2
Fore
SplineSet
411 400 m 1,0,1
 502.401367188 246.903320312 502.401367188 246.903320312 535 -32 c 1,2,-1
 513 -53 l 1,3,4
 437.836914062 206.3125 437.836914062 206.3125 364 335 c 1,5,6
 297.5 258 297.5 258 224 258 c 0,7,8
 187 258 187 258 157.5 277.5 c 128,-1,9
 128 297 128 297 111.5 329.5 c 128,-1,10
 95 362 95 362 95 400 c 128,-1,11
 95 438 95 438 111.5 470.5 c 128,-1,12
 128 503 128 503 157.5 522.5 c 128,-1,13
 187 542 187 542 224 542 c 0,14,15
 297.5 542 297.5 542 364 465 c 1,16,17
 437.836914062 593.6875 437.836914062 593.6875 513 853 c 1,18,-1
 535 832 l 1,19,20
 502.401367188 553.096679688 502.401367188 553.096679688 411 400 c 1,0,1
193 344 m 0,21,22
 205 332 205 332 223 332 c 128,-1,23
 241 332 241 332 268 349 c 128,-1,24
 295 366 295 366 321 400 c 1,25,26
 297 432 297 432 270.5 450 c 128,-1,27
 244 468 244 468 225 468 c 128,-1,28
 206 468 206 468 194 456.5 c 0,29,30
 170 433.5 170 433.5 170 400.25 c 128,-1,31
 170 367 170 367 193 344 c 0,21,22
EndSplineSet
EndChar

StartChar: u1AFFD
Encoding: 11 110589 11
Width: 640
VWidth: 1040
Flags: W
LayerCount: 2
Fore
SplineSet
185 400 m 1,0,1
 165 465 165 465 164.954101562 573.046875 c 128,-1,2
 164.954101562 681.184570312 164.954101562 681.184570312 184 860 c 1,3,-1
 204 860 l 1,4,5
 220 732 220 732 225.5 641.5 c 128,-1,6
 231 551 231 551 240 490 c 1,7,8
 298.834960938 542.706054688 298.834960938 542.706054688 357.060546875 542.706054688 c 0,9,10
 386.147460938 542.706054688 386.147460938 542.706054688 415.573242188 527.352539062 c 128,-1,11
 445 512 445 512 465 477 c 128,-1,12
 485 442 485 442 485 400 c 128,-1,13
 485 358 485 358 465 323 c 128,-1,14
 445 288 445 288 415.573242188 272.647460938 c 128,-1,15
 386.147460938 257.293945312 386.147460938 257.293945312 357.060546875 257.293945312 c 0,16,17
 298.834960938 257.293945312 298.834960938 257.293945312 240 310 c 1,18,19
 231 249 231 249 225.5 158.5 c 128,-1,20
 220 68 220 68 204 -60 c 1,21,-1
 184 -60 l 1,22,23
 164.954101562 118.815429688 164.954101562 118.815429688 164.954101562 226.953125 c 128,-1,24
 164.954101562 335.090820312 164.954101562 335.090820312 185 400 c 1,0,1
410 400 m 128,-1,26
 410 414 410 414 403 431.5 c 0,27,28
 388.477539062 467.806640625 388.477539062 467.806640625 357.3359375 467.806640625 c 128,-1,29
 326.193359375 467.806640625 326.193359375 467.806640625 288 432 c 0,30,31
 275 420 275 420 264 400 c 1,32,33
 275 380 275 380 300.610351562 356.096679688 c 128,-1,34
 326.221679688 332.193359375 326.221679688 332.193359375 357.349609375 332.193359375 c 128,-1,35
 388.477539062 332.193359375 388.477539062 332.193359375 403 368.5 c 0,36,25
 410 386 410 386 410 400 c 128,-1,26
EndSplineSet
EndChar

StartChar: u1AFFE
Encoding: 12 110590 12
Width: 640
VWidth: 1040
Flags: W
LayerCount: 2
Fore
SplineSet
125 603 m 1,0,1
 129.162109375 603.053710938 129.162109375 603.053710938 133.271484375 603.053710938 c 0,2,3
 266.58203125 603.053710938 266.58203125 603.053710938 360 543.5 c 0,4,5
 465.681640625 476.127929688 465.681640625 476.127929688 465.681640625 374.01171875 c 0,6,7
 465.681640625 303.157226562 465.681640625 303.157226562 413 262 c 0,8,9
 381 237 381 237 329.5 237 c 128,-1,10
 278 237 278 237 249 256.5 c 128,-1,11
 220 276 220 276 207 307.5 c 128,-1,12
 194 339 194 339 189 377 c 128,-1,13
 184 415 184 415 179.5 452.5 c 128,-1,14
 175 490 175 490 163.5 522 c 128,-1,15
 152 554 152 554 125 572 c 1,16,-1
 125 603 l 1,0,1
197 556 m 1,17,18
 222 533 222 533 232.5 501.5 c 128,-1,19
 243 470 243 470 248.5 437 c 128,-1,20
 254 404 254 404 260.5 375.5 c 0,21,22
 274.982421875 312 274.982421875 312 331 312 c 0,23,24
 360 312 360 312 375.314453125 333.057617188 c 128,-1,25
 390.62890625 354.114257812 390.62890625 354.114257812 390.62890625 383.005859375 c 0,26,27
 390.62890625 432.298828125 390.62890625 432.298828125 338.420898438 481.758789062 c 128,-1,28
 286.213867188 531.21875 286.213867188 531.21875 197 556 c 1,17,18
EndSplineSet
EndChar

StartChar: u1B000
Encoding: 13 110592 13
Width: 740
Flags: W
LayerCount: 2
Fore
SplineSet
100 -45 m 1,0,-1
 100 39 l 1,1,2
 294.901652242 53.6176239182 294.901652242 53.6176239182 417 153 c 0,3,4
 551.04339158 260.640905359 551.04339158 260.640905359 553 515 c 1,5,-1
 553 562 l 1,6,-1
 29 562 l 1,7,-1
 29 645 l 1,8,-1
 287 645 l 1,9,-1
 287 787 l 1,10,-1
 372 787 l 1,11,-1
 372 645 l 1,12,-1
 639 645 l 1,13,-1
 639 512 l 1,14,15
 636.35935397 229.450874832 636.35935397 229.450874832 482.414094329 97.4977951395 c 128,-1,16
 328.468834688 -34.4552845528 328.468834688 -34.4552845528 100 -45 c 1,0,-1
EndSplineSet
EndChar

StartChar: u1B001
Encoding: 14 110593 14
Width: 848
Flags: W
LayerCount: 2
Fore
SplineSet
193 744 m 1,0,1
 165 545.846153846 165 545.846153846 165 369.68974359 c 128,-1,2
 165 193.533333333 165 193.533333333 199 -15 c 1,3,-1
 113 -15 l 1,4,5
 86.0832632464 175.339781329 86.0832632464 175.339781329 84 367 c 1,6,7
 86.2201933405 544.61546724 86.2201933405 544.61546724 110 744 c 1,8,-1
 193 744 l 1,0,1
564 117 m 1,9,10
 635.320754717 114.962264151 635.320754717 114.962264151 703 107 c 1,11,-1
 703 32 l 1,12,13
 516 44 516 44 423.25 44 c 128,-1,14
 330.5 44 330.5 44 285 37 c 1,15,-1
 285 120 l 1,16,17
 406 120 406 120 496 163 c 0,18,19
 666 243 666 243 666 417 c 0,20,21
 666 462 666 462 645 501.5 c 128,-1,22
 624 541 624 541 578 565.5 c 128,-1,23
 532 590 532 590 442.5 590 c 128,-1,24
 353 590 353 590 285 563 c 1,25,-1
 285 651 l 1,26,27
 346 670 346 670 447.5 670 c 128,-1,28
 549 670 549 670 615 642.5 c 128,-1,29
 681 615 681 615 720 559 c 128,-1,30
 759 503 759 503 759 417 c 0,31,32
 759 218 759 218 564 117 c 1,9,10
EndSplineSet
EndChar

StartChar: u1B11F
Encoding: 15 110879 15
Width: 791
Flags: W
LayerCount: 2
Fore
SplineSet
331 -43 m 1,0,-1
 331 47 l 1,1,2
 417 73 417 73 453.5 148 c 128,-1,3
 490 223 490 223 491 367 c 1,4,-1
 326 367 l 1,5,-1
 326 454 l 1,6,-1
 491 454 l 1,7,-1
 491 661 l 1,8,-1
 346 661 l 1,9,-1
 346 748 l 1,10,-1
 716 748 l 1,11,-1
 716 661 l 1,12,-1
 581 661 l 1,13,-1
 581 454 l 1,14,-1
 736 454 l 1,15,-1
 736 367 l 1,16,-1
 581 367 l 1,17,18
 581 232 581 232 547 143.5 c 128,-1,19
 513 55 513 55 456 9.5 c 128,-1,20
 399 -36 399 -36 331 -43 c 1,0,-1
204 744 m 1,21,22
 177 552.923076923 177 552.923076923 177 373.228205128 c 128,-1,23
 177 193.533333333 177 193.533333333 211 -15 c 1,24,-1
 124 -15 l 1,25,26
 96.9097538742 191.302643573 96.9097538742 191.302643573 95 367 c 0,27,28
 96.9858989424 525.871915394 96.9858989424 525.871915394 121 744 c 1,29,-1
 204 744 l 1,21,22
EndSplineSet
EndChar

StartChar: u1B120
Encoding: 16 110880 16
Width: 649
Flags: W
LayerCount: 2
Fore
SplineSet
83 -50 m 1,0,-1
 -24 -50 l 1,1,2
 -2.94736842105 -7.89473684211 -2.94736842105 -7.89473684211 59.8049841002 77.1931987799 c 128,-1,3
 122.557336621 162.281134402 122.557336621 162.281134402 184 220 c 1,4,-1
 184 766 l 1,5,-1
 271 766 l 1,6,-1
 271 296 l 1,7,8
 421 415 421 415 605 491 c 1,9,-1
 605 401 l 1,10,11
 392.805383023 309.04899931 392.805383023 309.04899931 240 158 c 0,12,13
 153 72 153 72 83 -50 c 1,0,-1
EndSplineSet
EndChar

StartChar: u1B121
Encoding: 17 110881 17
Width: 712
Flags: W
LayerCount: 2
Fore
SplineSet
649 7 m 1,0,-1
 41 7 l 1,1,-1
 41 95 l 1,2,-1
 342 95 l 1,3,-1
 342 477 l 1,4,5
 192 358 192 358 8 282 c 1,6,-1
 8 372 l 1,7,8
 100 412 100 412 193.5 471 c 128,-1,9
 287 530 287 530 373.5 616 c 128,-1,10
 460 702 460 702 530 822 c 1,11,-1
 637 822 l 1,12,13
 630 807 630 807 609 775 c 128,-1,14
 588 743 588 743 559 703 c 128,-1,15
 530 663 530 663 496 623.5 c 128,-1,16
 462 584 462 584 429 553 c 1,17,-1
 429 95 l 1,18,-1
 649 95 l 1,19,-1
 649 7 l 1,0,-1
EndSplineSet
EndChar

StartChar: u1B122
Encoding: 18 110882 18
Width: 734
Flags: W
LayerCount: 2
Fore
SplineSet
278 -52 m 0,0,1
 236 -52 236 -52 205 -45 c 1,2,-1
 202 41 l 1,3,4
 235 35 235 35 278.5 35 c 128,-1,5
 322 35 322 35 344.5 54.5 c 128,-1,6
 367 74 367 74 367 260 c 2,7,-1
 367 383 l 1,8,-1
 43 383 l 1,9,-1
 43 465 l 1,10,-1
 367 465 l 1,11,-1
 367 664 l 1,12,-1
 74 664 l 1,13,-1
 74 748 l 1,14,-1
 641 748 l 1,15,-1
 641 664 l 1,16,-1
 454 664 l 1,17,-1
 454 465 l 1,18,-1
 671 465 l 1,19,-1
 671 383 l 1,20,-1
 454 383 l 1,21,-1
 454 254 l 2,22,23
 454 196 454 196 451 106.5 c 128,-1,24
 448 17 448 17 413 -12 c 0,25,26
 364 -52 364 -52 278 -52 c 0,0,1
EndSplineSet
EndChar

StartChar: u1B132
Encoding: 19 110898 19
Width: 638
Flags: W
LayerCount: 2
Fore
SplineSet
397 401 m 1,0,-1
 303 401 l 1,1,-1
 390 482 l 1,2,-1
 109 482 l 1,3,-1
 109 559 l 1,4,-1
 516 559 l 1,5,-1
 516 500 l 1,6,-1
 397 401 l 1,0,-1
542 -31 m 1,7,8
 442.756157635 -45.0344827586 442.756157635 -45.0344827586 327.609988109 -45.0344827586 c 0,9,10
 224.965517241 -45.0344827586 224.965517241 -45.0344827586 168 -18 c 0,11,12
 97 15 97 15 97 109 c 0,13,14
 97 177 97 177 154 232 c 1,15,-1
 240 232 l 1,16,17
 174 166 174 166 174 120 c 0,18,19
 174 91 174 91 186 72 c 0,20,21
 210 36 210 36 335 32 c 0,22,23
 452 32 452 32 542 49 c 1,24,-1
 542 -31 l 1,7,8
EndSplineSet
EndChar

StartChar: u1B150
Encoding: 20 110928 20
Width: 651
Flags: W
LayerCount: 2
Fore
SplineSet
550 88 m 1,0,1
 562 79 562 79 579 62 c 1,2,-1
 577 -23 l 1,3,4
 549 3 549 3 525 23 c 1,5,6
 502 -22 502 -22 469 -43.5 c 128,-1,7
 436 -65 436 -65 384 -65 c 0,8,9
 290 -65 290 -65 290 43 c 0,10,11
 290 88 290 88 319.5 116.5 c 128,-1,12
 349 145 349 145 396 145 c 128,-1,13
 443 145 443 145 489 125 c 1,14,15
 494 165 494 165 494 192 c 0,16,17
 494 315 494 315 363 335 c 1,18,19
 332.860239163 197.218236173 332.860239163 197.218236173 263.807478072 84.6091180867 c 128,-1,20
 194.754716981 -28 194.754716981 -28 133.877358491 -28 c 128,-1,21
 73 -28 73 -28 51 10.5 c 128,-1,22
 29 49 29 49 29 110 c 0,23,24
 29 225.246753247 29 225.246753247 112.116612622 311.601675451 c 128,-1,25
 195.233225243 397.956597655 195.233225243 397.956597655 302 404 c 1,26,27
 309 455 309 455 311 496 c 1,28,-1
 91 496 l 1,29,-1
 91 570 l 1,30,-1
 390 570 l 1,31,32
 387 479 387 479 375 403 c 1,33,34
 489.530225783 389.52585579 489.530225783 389.52585579 539.5 307.5 c 0,35,36
 566 264 566 264 566 200 c 128,-1,37
 566 136 566 136 550 88 c 1,0,1
134 48 m 0,38,39
 165.253012048 48 165.253012048 48 216.697582947 138.848923077 c 128,-1,40
 268.142153846 229.697846154 268.142153846 229.697846154 290 337 c 1,41,42
 241 331 241 331 197.5 298 c 128,-1,43
 154 265 154 265 127 216.5 c 128,-1,44
 100 168 100 168 100 116 c 0,45,46
 100 48 100 48 134 48 c 0,38,39
346 43 m 0,47,48
 346 -2 346 -2 394.5 -2 c 128,-1,49
 443 -2 443 -2 471 62 c 1,50,51
 425 88 425 88 391 88 c 0,52,53
 348 88 348 88 346 43 c 0,47,48
EndSplineSet
EndChar

StartChar: u1B151
Encoding: 21 110929 21
Width: 668
Flags: W
LayerCount: 2
Fore
SplineSet
198 28 m 1,0,1
 238 38 238 38 262.5 38 c 128,-1,2
 287 38 287 38 311.5 26 c 128,-1,3
 336 14 336 14 373.5 14 c 128,-1,4
 411 14 411 14 460 40 c 1,5,-1
 462 -26 l 1,6,7
 398 -56 398 -56 361.5 -56 c 128,-1,8
 325 -56 325 -56 296.5 -43.5 c 0,9,10
 225.6775 -12.4375 225.6775 -12.4375 194.859375 -12.4375 c 0,11,12
 184.625 -12.4375 184.625 -12.4375 174 -14 c 1,13,-1
 49 -67 l 1,14,-1
 49 6 l 1,15,16
 164 61 164 61 222 108 c 1,17,18
 134.80733945 129.798165138 134.80733945 129.798165138 118.5 163.5 c 0,19,20
 111 179 111 179 111 195 c 0,21,22
 111 233 111 233 151 263.5 c 128,-1,23
 191 294 191 294 267 294 c 0,24,25
 377 294 377 294 377 224 c 0,26,27
 377 186.294117647 377 186.294117647 348 159 c 1,28,29
 427 166 427 166 461.5 196.5 c 128,-1,30
 496 227 496 227 496 268 c 0,31,32
 496 360 496 360 352.5 360 c 128,-1,33
 209 360 209 360 41 243 c 1,34,-1
 41 323 l 1,35,-1
 383 509 l 1,36,-1
 101 507 l 1,37,-1
 101 576 l 1,38,-1
 490 576 l 1,39,-1
 490 503 l 1,40,-1
 335 410 l 1,41,42
 368 413 368 413 396 413 c 0,43,44
 572 413 572 413 572 274 c 0,45,46
 572 198 572 198 514.5 147.5 c 128,-1,47
 457 97 457 97 343 97 c 0,48,49
 323 97 323 97 303 99 c 1,50,51
 253.260869565 58.3043478261 253.260869565 58.3043478261 198 28 c 1,0,1
275 161 m 1,52,53
 303 193 303 193 303 209 c 0,54,55
 303 243 303 243 241.5 243 c 128,-1,56
 180 243 180 243 180 200 c 0,57,58
 180 170 180 170 275 161 c 1,52,53
596 -71 m 1,59,-1
 513 -71 l 1,60,61
 479 45 479 45 437 99 c 1,62,-1
 527 100 l 1,63,64
 572 30 572 30 596 -71 c 1,59,-1
EndSplineSet
EndChar

StartChar: u1B152
Encoding: 22 110930 22
Width: 630
Flags: W
LayerCount: 2
Fore
SplineSet
228 72 m 0,0,1
 228 12.1 228 12.1 304 14 c 1,2,-1
 512 16 l 1,3,-1
 512 -61 l 1,4,-1
 297 -61 l 2,5,6
 214.288461538 -61 214.288461538 -61 172.5 -8 c 0,7,8
 152 18 152 18 152 57 c 0,9,10
 152 117 152 117 188 161.5 c 128,-1,11
 224 206 224 206 317 251 c 1,12,13
 314 283 314 283 304 296.5 c 128,-1,14
 294 310 294 310 268 310 c 0,15,16
 226 310 226 310 153 243 c 0,17,18
 139 230 139 230 112.5 200 c 128,-1,19
 86 170 86 170 42 123 c 1,20,-1
 42 237 l 1,21,22
 76 270 76 270 114 317 c 128,-1,23
 152 364 152 364 191 443 c 1,24,-1
 45 443 l 1,25,-1
 45 517 l 1,26,-1
 217 517 l 1,27,28
 234.875 566.15625 234.875 566.15625 242 600 c 1,29,-1
 321 600 l 1,30,31
 313.9 571.6 313.9 571.6 295 517 c 1,32,-1
 496 517 l 1,33,-1
 496 443 l 1,34,-1
 273 443 l 1,35,36
 250.073170732 390.268292683 250.073170732 390.268292683 226 349 c 1,37,38
 274 371 274 371 309.5 371 c 128,-1,39
 345 371 345 371 365 347 c 128,-1,40
 385 323 385 323 387 281 c 1,41,42
 515.108108108 342.918918919 515.108108108 342.918918919 557 358 c 1,43,-1
 557 276 l 1,44,45
 478 247 478 247 388 201 c 1,46,-1
 388 84 l 1,47,-1
 316 84 l 1,48,-1
 316 172 l 1,49,50
 280 153 280 153 254 129.5 c 128,-1,51
 228 106 228 106 228 72 c 0,0,1
EndSplineSet
EndChar

StartChar: u1B155
Encoding: 23 110933 23
Width: 649
Flags: W
LayerCount: 2
Fore
SplineSet
538 -18 m 1,0,-1
 70 -18 l 1,1,-1
 70 61 l 1,2,-1
 457 61 l 1,3,-1
 457 472 l 1,4,-1
 70 472 l 1,5,-1
 70 551 l 1,6,-1
 538 551 l 1,7,-1
 538 -18 l 1,0,-1
EndSplineSet
EndChar

StartChar: u1B164
Encoding: 24 110948 24
Width: 638
Flags: W
LayerCount: 2
Fore
SplineSet
451 -68 m 1,0,-1
 369 -68 l 1,1,-1
 369 71 l 1,2,-1
 27 71 l 1,3,-1
 27 152 l 1,4,-1
 120 152 l 1,5,-1
 120 407 l 1,6,-1
 56 407 l 1,7,-1
 56 487 l 1,8,-1
 369 487 l 1,9,-1
 369 588 l 1,10,-1
 451 588 l 1,11,-1
 451 487 l 1,12,-1
 539 487 l 1,13,-1
 539 407 l 1,14,-1
 451 407 l 1,15,-1
 451 152 l 1,16,-1
 550 152 l 1,17,-1
 550 71 l 1,18,-1
 451 71 l 1,19,-1
 451 -68 l 1,0,-1
194 407 m 1,20,-1
 194 152 l 1,21,-1
 369 152 l 1,22,-1
 369 407 l 1,23,-1
 194 407 l 1,20,-1
EndSplineSet
EndChar

StartChar: u1B165
Encoding: 25 110949 25
Width: 601
Flags: W
LayerCount: 2
Fore
SplineSet
527 -18 m 1,0,-1
 21 -18 l 1,1,-1
 21 63 l 1,2,-1
 233 63 l 1,3,-1
 233 364 l 1,4,-1
 315 364 l 1,5,-1
 315 284 l 1,6,7
 410 360 410 360 436 470 c 1,8,-1
 37 470 l 1,9,-1
 37 551 l 1,10,-1
 516 551 l 1,11,-1
 516 448 l 1,12,13
 489.529411765 346.529411765 489.529411765 346.529411765 407.5 264.5 c 0,14,15
 367 224 367 224 315 198 c 1,16,-1
 315 63 l 1,17,-1
 527 63 l 1,18,-1
 527 -18 l 1,0,-1
EndSplineSet
EndChar

StartChar: u1B166
Encoding: 26 110950 26
Width: 600
Flags: W
LayerCount: 2
Fore
SplineSet
88 -36 m 1,0,-1
 88 47 l 1,1,2
 130 55 130 55 180.5 73.5 c 0,3,4
 300.095116908 117.312072531 300.095116908 117.312072531 376 255 c 1,5,-1
 49 255 l 1,6,-1
 49 329 l 1,7,-1
 403 329 l 1,8,9
 418 390.875 418 390.875 418 483 c 1,10,-1
 33 483 l 1,11,-1
 33 560 l 1,12,-1
 500 560 l 1,13,-1
 500 462 l 2,14,15
 500 278.0625 500 278.0625 410 151.5 c 0,16,17
 307.634255129 7.54817127565 307.634255129 7.54817127565 88 -36 c 1,0,-1
EndSplineSet
EndChar

StartChar: u1B167
Encoding: 27 110951 27
Width: 584
Flags: W
LayerCount: 2
Fore
SplineSet
235 477 m 1,0,-1
 23 477 l 1,1,-1
 23 556 l 1,2,-1
 235 556 l 1,3,-1
 235 477 l 1,0,-1
23 -40 m 1,4,-1
 23 43 l 1,5,6
 140.030852995 50.165154265 140.030852995 50.165154265 250.5 130 c 0,7,8
 383.647532948 226.224267509 383.647532948 226.224267509 445 414 c 1,9,-1
 527 414 l 1,10,11
 503.196428571 294.982142857 503.196428571 294.982142857 409.669642857 176.514880952 c 128,-1,12
 316.142857143 58.0476190476 316.142857143 58.0476190476 179 -1 c 0,13,14
 107 -32 107 -32 23 -40 c 1,4,-1
EndSplineSet
EndChar
